<?xml version="1.0" encoding="UTF-8"?>
<svg id="Layer_2" data-name="Layer 2" xmlns="http://www.w3.org/2000/svg" viewBox="0 0 67.93 65.33">
  <defs>
    <style>
      .cls-1 {
        fill: #1f0537;
        stroke-width: 0px;
      }
    </style>
  </defs>
  <g id="Layer_1-2" data-name="Layer 1">
    <g>
      <g>
        <path class="cls-1" d="m25.49,20.11c-3.18,0-5.76-2.58-5.76-5.76s2.58-5.76,5.76-5.76,5.76,2.58,5.76,5.76-2.58,5.76-5.76,5.76Zm0-10.23c-2.46,0-4.47,2-4.47,4.47s2,4.47,4.47,4.47,4.47-2,4.47-4.47-2-4.47-4.47-4.47Z"/>
        <path class="cls-1" d="m13.38,33.32c-1,0-1.98-.26-2.87-.77-1.33-.77-2.29-2.01-2.68-3.5-.4-1.49-.19-3.04.58-4.37s2.01-2.29,3.5-2.68c1.49-.4,3.04-.19,4.37.58,1.33.77,2.29,2.01,2.68,3.5.4,1.49.19,3.04-.58,4.37-.77,1.33-2.01,2.29-3.5,2.68-.5.13-1,.2-1.5.2Zm.02-10.23c-.39,0-.78.05-1.16.15-1.15.31-2.12,1.05-2.71,2.08-.6,1.03-.76,2.24-.45,3.39.31,1.15,1.05,2.12,2.08,2.71,1.03.6,2.24.76,3.39.45,1.15-.31,2.12-1.05,2.71-2.08.6-1.03.75-2.24.45-3.39s-1.05-2.12-2.08-2.71h0c-.69-.4-1.45-.6-2.23-.6Z"/>
        <path class="cls-1" d="m18.77,50.4c-1.99,0-3.93-1.03-5-2.88-1.59-2.75-.64-6.28,2.11-7.87h0c2.75-1.59,6.28-.64,7.87,2.11,1.59,2.75.64,6.28-2.11,7.87-.9.52-1.89.77-2.87.77Zm-2.24-9.63c-2.13,1.23-2.87,3.97-1.63,6.1,1.23,2.13,3.97,2.87,6.1,1.63,2.13-1.23,2.87-3.97,1.63-6.1-1.23-2.13-3.97-2.87-6.1-1.63h0Z"/>
        <path class="cls-1" d="m42.99,24c-.5,0-1-.07-1.5-.2-1.49-.4-2.73-1.35-3.5-2.68-.77-1.33-.97-2.89-.58-4.37.4-1.49,1.35-2.73,2.68-3.5,1.33-.77,2.89-.97,4.37-.58,1.49.4,2.73,1.35,3.5,2.68.77,1.33.97,2.89.58,4.37-.4,1.49-1.35,2.73-2.68,3.5h0c-.89.51-1.87.77-2.87.77Zm-.02-10.23c-.77,0-1.54.2-2.23.6-1.03.6-1.77,1.56-2.08,2.71-.31,1.15-.15,2.36.45,3.39.6,1.03,1.56,1.77,2.71,2.08,1.15.31,2.36.15,3.39-.45h0c1.03-.6,1.77-1.56,2.08-2.71.31-1.15.15-2.36-.45-3.39-.6-1.03-1.56-1.77-2.71-2.08-.38-.1-.78-.15-1.16-.15Z"/>
        <path class="cls-1" d="m30.25,62.3c-.07,0-.14,0-.21,0-.11,0-.22,0-.33,0-7.91-.29-15.33-3.61-20.91-9.32C3.22,47.24.1,39.74,0,31.82-.1,23.43,3.11,15.54,9.04,9.6,14.98,3.67,22.86.48,31.26.57c10.26.13,19.78,5.37,25.45,14.04.2.3.11.7-.19.9-.3.2-.7.11-.9-.19C50.19,7.02,41.08,1.99,31.24,1.87c-8.04-.09-15.6,2.97-21.28,8.66C4.28,16.2,1.2,23.76,1.3,31.81c.19,15.78,12.69,28.6,28.46,29.18.1,0,.2,0,.3,0,2.24.06,4.27-1.03,5.45-2.92,1.19-1.91,1.29-4.24.25-6.23l-4.48-8.61c-1.74-3.34-1.14-7.21,1.52-9.87,2.66-2.66,6.53-3.26,9.87-1.52l8.61,4.48c1.28.66,2.69.87,4.08.6.35-.07.69.16.76.51.07.35-.16.69-.51.76-1.68.33-3.39.08-4.93-.72l-8.61-4.48c-2.82-1.47-6.11-.96-8.36,1.29-2.25,2.25-2.76,5.53-1.29,8.36l4.48,8.61c1.25,2.4,1.14,5.21-.3,7.52-1.39,2.22-3.76,3.53-6.36,3.53Z"/>
      </g>
      <g>
        <path class="cls-1" d="m56.52,65.33c-.12,0-.24-.03-.35-.1-.19-.12-.3-.32-.3-.55,0-2.89-1.5-4.74-3.08-6.7-1.54-1.91-3.13-3.88-3.13-6.79,0-4.95,4.18-9.14,9.14-9.14s9.14,4.1,9.14,9.14c0,8.88-10.69,13.88-11.14,14.08-.09.04-.18.06-.27.06Zm.65-.65h0,0Zm1.63-21.33c-4.25,0-7.84,3.59-7.84,7.84,0,2.46,1.38,4.17,2.85,5.98,1.48,1.83,3,3.71,3.31,6.48,2.49-1.36,9.52-5.81,9.52-12.46,0-4.32-3.52-7.84-7.84-7.84Z"/>
        <path class="cls-1" d="m62.29,44.11c-.35,0-.64-.28-.65-.63l-1.23-40.62c-.01-.42-.19-.82-.49-1.11-.31-.3-.7-.46-1.12-.46-.88,0-1.59.69-1.61,1.56l-1.23,40.62c-.01.36-.31.63-.67.63-.36-.01-.64-.31-.63-.67l1.23-40.62c.05-1.58,1.32-2.82,2.91-2.82.76,0,1.48.29,2.02.82.54.52.86,1.23.88,2l1.23,40.62c.01.36-.27.66-.63.67,0,0-.01,0-.02,0Z"/>
      </g>
    </g>
  </g>
</svg>