<?xml version="1.0" encoding="UTF-8"?>
<svg id="Layer_2" data-name="Layer 2" xmlns="http://www.w3.org/2000/svg" viewBox="0 0 67.93 67.34">
  <defs>
    <style>
      .cls-1 {
        fill: #1f0537;
        stroke-width: 0px;
      }
    </style>
  </defs>
  <g id="Layer_1-2" data-name="Layer 1">
    <g>
      <g>
        <path class="cls-1" d="m10.08,67.34h0c-2.34,0-4.52-1.26-5.69-3.29-.6-1.04-.9-2.23-.87-3.44l.64-27.61c0-.36.3-.64.66-.63.36,0,.64.31.63.66l-.64,27.61c-.02.97.22,1.92.7,2.76.94,1.63,2.69,2.64,4.57,2.64h0c1.43,0,2.77-.56,3.77-1.59,1-1.02,1.53-2.38,1.5-3.81l-.64-27.59c-.01-.24.1-.47.32-.6.31-.18.71-.07.88.24h0c.05.1.08.2.09.31l.64,27.61c.04,1.78-.62,3.47-1.87,4.74-1.25,1.28-2.92,1.98-4.7,1.98Z"/>
        <path class="cls-1" d="m15.38,33.67H4.77c-1.26,0-2.29-1.03-2.29-2.29v-3.72c0-1.26,1.03-2.29,2.29-2.29h10.61c1.26,0,2.29,1.03,2.29,2.29v3.72c0,1.26-1.03,2.29-2.29,2.29Zm-10.61-7c-.55,0-.99.45-.99.99v3.72c0,.55.45.99.99.99h10.61c.55,0,.99-.45.99-.99v-3.72c0-.55-.45-.99-.99-.99H4.77Z"/>
        <path class="cls-1" d="m10.07,26.67c-5.55,0-10.07-4.52-10.07-10.07,0-3.49,1.05-7.48,2.88-10.93C4.59,2.46,6.66.29,8.29.03c.52-.09,1.79-.09,2.4,1.71,1.95,5.8,4.44,7.93,6.44,9.64,1.69,1.45,3.02,2.59,3.02,5.23,0,5.55-4.52,10.07-10.07,10.07ZM8.65,1.29c-.06,0-.12,0-.16.02-2.31.38-7.2,7.86-7.2,15.3,0,4.84,3.94,8.78,8.78,8.78s8.78-3.94,8.78-8.78c0-2.05-.97-2.87-2.57-4.25-2.01-1.72-4.76-4.07-6.82-10.21-.25-.74-.58-.86-.8-.86Z"/>
      </g>
      <g>
        <path class="cls-1" d="m43.95,67.34h-18.35c-1.04,0-1.89-.85-1.89-1.89V3.18c0-1.04.85-1.89,1.89-1.89h18.35c1.04,0,1.89.85,1.89,1.89v62.28c0,1.04-.85,1.89-1.89,1.89ZM25.6,2.59c-.33,0-.59.26-.59.59v62.28c0,.33.26.59.59.59h18.35c.33,0,.59-.26.59-.59V3.18c0-.33-.26-.59-.59-.59h-18.35Z"/>
        <g>
          <path class="cls-1" d="m45.18,60.17h-9.41c-.36,0-.65-.29-.65-.65s.29-.65.65-.65h9.41c.36,0,.65.29.65.65s-.29.65-.65.65Z"/>
          <path class="cls-1" d="m45.18,47.57h-6.85c-.36,0-.65-.29-.65-.65s.29-.65.65-.65h6.85c.36,0,.65.29.65.65s-.29.65-.65.65Z"/>
          <path class="cls-1" d="m45.18,34.97h-9.41c-.36,0-.65-.29-.65-.65s.29-.65.65-.65h9.41c.36,0,.65.29.65.65s-.29.65-.65.65Z"/>
          <path class="cls-1" d="m45.18,22.36h-6.85c-.36,0-.65-.29-.65-.65s.29-.65.65-.65h6.85c.36,0,.65.29.65.65s-.29.65-.65.65Z"/>
          <path class="cls-1" d="m45.18,9.76h-9.41c-.36,0-.65-.29-.65-.65s.29-.65.65-.65h9.41c.36,0,.65.29.65.65s-.29.65-.65.65Z"/>
        </g>
      </g>
      <g>
        <path class="cls-1" d="m66.21,67.34h-13.47c-.95,0-1.72-.77-1.72-1.72V11.66c0-.93.35-1.82.98-2.51l7-7.64c.25-.27.71-.27.96,0l7,7.64c.63.69.98,1.58.98,2.51v53.97c0,.95-.77,1.72-1.72,1.72ZM59.48,2.9l-6.52,7.12h0c-.41.45-.64,1.03-.64,1.63v53.97c0,.23.19.42.42.42h13.47c.23,0,.42-.19.42-.42V11.66c0-.61-.23-1.19-.64-1.63l-6.52-7.12Zm-7,6.68h0,0Z"/>
        <path class="cls-1" d="m58.78,16.1h-7.11c-.36,0-.65-.29-.65-.65s.29-.65.65-.65h7.11c.36,0,.65.29.65.65s-.29.65-.65.65Z"/>
        <path class="cls-1" d="m58.78,54.87h-7.11c-.36,0-.65-.29-.65-.65s.29-.65.65-.65h7.11c.36,0,.65.29.65.65s-.29.65-.65.65Z"/>
      </g>
    </g>
  </g>
</svg>