<?xml version="1.0" encoding="UTF-8"?>
<svg id="Layer_2" data-name="Layer 2" xmlns="http://www.w3.org/2000/svg" viewBox="0 0 191.41 27.18">
  <defs>
    <style>
      .cls-1 {
        fill: #fff;
        stroke-width: 0px;
      }
    </style>
  </defs>
  <g id="Layer_1-2" data-name="Layer 1">
    <g>
      <path class="cls-1" d="m31.99,21.79c-.77.21-1.38-.31-1.87-.64-.58-.28-1.17-.55-1.63-.89-.43.4-.77,1.01-1.1,1.57-.12.18-.28.34-.4.46-.06.18-.18.46-.25.71-.06,0-.22.06-.22.09-.15.28-.49,1.17-1.1,1.14-.09-.34-.09-.43,0-.68.12-.37.43-.64.64-1.07.22-.34.43-.61.68-.98.31-.46.52-1.01.92-1.53-.46-.4-1.07-.61-1.66-.83-1.69-.68-3.56-1.38-5.77-1.9-.4-.09-.92-.15-1.38-.25-.52-.06-1.01-.37-1.29-.31-.43.09-.46.28-.8.55-.46.49-.89.77-1.38,1.29-.25.15-.34.46-.55.61-.09.09-.22,0-.34.09-.06.12-.22.31-.43.49-.21.15-.34.28-.52.46-.28.15-.61.55-.89.74-.09.03-.18,0-.28.12-.15.06-.28.22-.46.34-.92.64-2.03,1.38-3.19,1.96-1.17.55-2.46,1.2-3.77,1.35-1.47.12-2.95-.25-3.84-.89-.06-.03-.15-.15-.28-.25-.18-.18-.34-.4-.52-.64-.09-.06-.31-.68-.31-.95-.09-.67.34-1.47.64-1.99.31-.43,1.1-1.35,1.63-1.78.06-.03.19-.03.22-.09.43-.34,1.07-.77,1.66-1.01.61-.31,1.38-.61,2.06-.83,1.66-.52,3.32-.65,5.13-.8,1.6-.06,3.41-.06,4.97.15.18,0,.46.09.61.09.22-.06.58-.52.95-.98,1.14-1.2,2.27-2.45,3.32-3.65.15-.18.31-.28.46-.46.15-.18.31-.34.49-.58.25-.25.37-.49.68-.8.03-.12.22-.15.25-.18.12-.25.25-.43.4-.58.18-.28.46-.46.74-.77.03-.03.18-.03.18-.09.31-.61,1.23-1.35,1.93-2.18.68-.64,1.38-1.35,2-1.96.06-.03.22-.03.4-.12.06-.12.09-.25.12-.34.31-.15.58-.37.86-.61.15-.06.21-.12.31-.18.46-.4,1.07-.89,1.69-1.26.64-.34,1.81-.83,2.73-.43.03,0,.03.15.09.18.49.18.95,1.04,1.01,1.78.21,1.66-.52,3.41-1.01,4.82-.22.61-.28,1.14-.55,1.75-.89,2.03-2.03,4.54-3.04,6.57-.49.98-.95,1.93-1.47,2.92-.19.28-.37.58-.61.77,1.01.92,2.82.98,3.16,2.52Zm-24.37-5c-1.04.22-2.03.61-2.95,1.07-.68.28-1.57.8-2.3,1.53-.68.61-1.57,1.66-1.41,2.61,0,.15.31.61.34.74,0,0,.15.15.22.15.25.25.49.4.92.55.64.22,1.63.37,2.52.31.28-.09.55-.22.86-.31.31-.12.65-.12.95-.25.12,0,.18-.06.34-.12,1.5-.64,2.95-1.54,4.17-2.36.68-.46,1.29-1.01,1.84-1.5.15-.09.25-.09.43-.15.06-.09.15-.31.22-.43.22-.12.46-.28.68-.46.25-.18.34-.46.52-.64.12-.06.34-.09.43-.22.25-.18.4-.34.52-.52-.03.03.4-.34,0-.28-1.41-.28-3.25-.18-4.79-.06-1.17.03-2.36.06-3.5.34ZM30.92,2.52c-3.31,2.49-5.92,5.53-8.41,8.47-.31.34-.77.77-.98,1.07,0,.06-.15.15-.15.15-.37.43-.8.83-1.14,1.2-.15.18-.25.37-.37.55-.46.55-1.01.95-1.41,1.41,0,.03-.49.4-.12.49,3.71.64,6.88,1.81,9.85,3.19,1.1-2.09,2.42-4.54,3.38-6.66.37-.83.68-1.5,1.01-2.18.12-.43.31-.74.43-1.01.37-1.04.77-1.96,1.04-2.92.46-1.6,1.1-3.59.03-4.97-.89-.21-1.35.06-1.96.46-.46.25-.86.46-1.2.74Z"/>
      <path class="cls-1" d="m36.07,14.4c.18.03.46-.34.74-.55.12-.03.28-.06.46-.12.31-.18.71-.46,1.32-.4.49.03.92.37,1.23.64.31.31.46.64.83,1.07.43.4.74.61,1.78.55.61-.06,2.06-.46,2.58-.67,1.17-.68,1.35.77.25.83-1.07.55-3.59,1.23-4.67.58-.22-.12-.55-.28-.77-.58-.31-.37-.83-1.32-1.44-1.35-.61-.12-1.41.64-1.84.98-.03.06-.22.06-.28.12-.34.25-.95,1.23-1.23,1.47-.28.19-.28.22-.86.06-.46-.64.43-1.84.8-2.42.31-.67.61-1.5.98-1.96.25-.25.34-.21.67-.06.22.74-.43,1.2-.55,1.81Z"/>
      <path class="cls-1" d="m48.78,17.07c-.49.22-1.54.89-2.49.86-1.84-.09-1.69-2.52-.49-3.84.28-.28.71-.49.98-.64.77-.52,1.69-.92,2.86-.77.46.09.86.31,1.35.58.09-.46.31-.95.55-1.47.12-.46.31-.95.55-1.29.12-.15.25-.61.37-.92.25-.37.43-.8.71-1.29.06-.15.06-.28.15-.37.09-.25.25-.31.4-.61.46-1.1,1.35-2.18,1.96-3.31.18-.34.74-1.07,1.01-1.41.12-.09.22-.03.34-.15.06-.15.37-.49.74-.55.55-.06,1.01.31,1.14.61.25.61-.28,1.84-.58,2.55-1.47,3.9-4.27,7.24-7.03,10.07-.4,1.17-.74,2.21-1.07,3.35-.25,1.04-.49,2.27-.61,3.59-.03.31-.03.74-.09,1.2-.09.61.25,1.04-.37,1.13-.8.12-.61-1.29-.61-1.81.15-2.24.58-4.24,1.17-6.05-.25.03-.49.28-.92.55Zm-.89-3.1c-.58.22-.71.22-1.1.68-.37.31-.52.55-.58.83,0,0-.18.09-.22.12-.09.31-.15.77-.09,1.17.89.37,2.03-.37,2.45-.65.4-.15.55-.31.89-.55.52-.4,1.23-.86,1.32-1.47-.37-.28-.83-.52-1.23-.49-.55-.06-1.13.18-1.44.37Zm5.49-3.84c-.06.12-.09.25-.15.31s-.12.25-.15.28c-.25.4-.37.95-.49,1.35-.03.09-.43.34-.19.49,2.18-2.61,4.18-5.31,5.28-8.72.46-1.23.03-.8-.43-.18-1.5,1.81-2.73,3.96-3.65,5.98-.03.25-.12.43-.22.49Z"/>
      <path class="cls-1" d="m57.98,13.29c.28-.19.61-.31,1.01-.25.43,0,.71.31,1.04.52.58.4,1.23.92,2.18,1.04.58.09,1.14.03,1.5,0,.49-.03,1.01-.46,1.69,0,.19.92-.89.95-1.5,1.07-.92.03-1.66,0-2.36-.18-.71-.25-1.11-.46-1.66-.89-.34-.25-.68-.58-.92-.58-.49-.03-.89.43-1.32.77-.83.71-1.35,1.29-1.93,2.09-.31.31-.49.95-1.17.64-.31-.49-.06-.8.15-1.14.03,0,.18-.09.18-.09.06-.12.12-.28.25-.49,0,0,.12-.03.12-.09.15-.19.31-.4.46-.65.43-.64.8-1.38,1.29-2.03.03-.06.15-.09.15-.09.03-.12,0-.18.12-.18,0-.12.18-.09.15-.25h.25c.28.15.43.46.31.77Z"/>
      <path class="cls-1" d="m66.3,16.58c.37.19,1.14.28,1.63.22,1.04-.09,2.33-.68,3.07-1.04,1.13-.58,2.3-1.47,2.52-.86.15.71-.68.89-1.23,1.23-.09.06-.15.06-.34.15-.25.12-.43.34-.61.4-.21.18-.52.25-.77.34-1.2.43-2.95.92-4.21.55-.43-.18-.89-.34-1.17-.61-.06-.12-.03-.25-.12-.37,0-.03-.15-.18-.15-.18-.34-.67-.09-1.17,0-1.6.25-.46.31-.58.68-1.01.49-.58,1.29-1.29,2.42-1.53.98-.34,2.42-.34,2.61.55.12.34-.12.95-.31,1.2-.06.15-.31.25-.43.34-.15.09-.31.25-.46.34-1.01.67-2.33,1.35-3.8,1.07.15.43.43.71.67.83Zm2.33-2.45c.52-.31,1.04-.49,1.1-1.07-1.75-.28-3.44.74-3.9,2.03,1.14.03,2.03-.46,2.79-.95Z"/>
      <path class="cls-1" d="m75.47,16.3c1.26-.65,2.27-1.47,3.25-2.52.46-.46.95-1.1,1.75-1.1.58.4.03,1.1-.12,1.78-.18.74-.28,1.38.25,1.84.86.12,1.54-.12,2.06-.46.58-.25,1.04-.64,1.63-.92.06,0,.06-.18.12-.18.22-.12.64-.34.89,0,.25.37-.06.67-.43,1.01-.28.28-.74.43-1.04.55-.18.12-.31.34-.49.43-.67.28-2.12.95-3.19.52-.71-.31-1.01-1.23-.89-2.39-.25-.12-.43.25-.71.43-.95.89-2.15,1.84-3.71,2.36-.28.06-.61.22-.92.28-1.29.09-1.96-.52-1.53-1.93,0-.12.18-.18.21-.25.03-.31.15-.49.31-.83.77-1.07,2.39-2.21,3.62-2.33,1.23-.18,1.9.09,2.42.74,0,.12,0,.15-.12.22,0,.06,0,.18-.09.18.06.06,0,.06-.06.06-.55.06-.92-.25-1.38-.25-.86-.06-1.78.37-2.39.83-.8.58-1.53,1.5-1.57,2.52.83.25,1.57-.25,2.15-.58Z"/>
      <path class="cls-1" d="m103.52,11.08c.64-.28,1.35-.46,1.96-.86.22-.15.37-.34.64-.46.28-.15.46-.31.61-.52.18-.09.34-.09.43-.15.22-.12.37-.4.55-.58.25-.15.46-.28.68-.46.37-.31.77-.71,1.07-1.01.8-.67,1.5-1.53,2.12-2.45.03-.12.15-.15.31-.28.03-.15.06-.22.15-.37.31-.58.89-1.54.52-2.55-.83-.83-2.06-.34-2.95-.09-.92.31-1.96.74-2.67,1.14-.03,0-.03.15-.06.15-1.54.74-3.01,2-4.14,3.16-.61.61-1.29,1.2-1.9,1.99-.52.61-1.04,1.26-1.54,2.09-1.04,1.53-2.24,3.47-2.12,5.43.15,2.09,1.6,3.28,4.24,3.01,1.54-.15,2.92-.83,4.27-1.5.43-.25.92-.46,1.38-.77.03-.03.18-.03.25-.06.18-.09.34-.4.64-.46.06-.12.28-.12.43-.21.25-.15.46-.46.77-.65.22-.21.52-.43.77-.64.31-.21.58-.43.77-.67.43-.4.92-.8,1.23-1.32.34-.49.92-1.07,1.32-1.75.15-.21.31-.64.49-.98.15-.15.03-.83.74-.61.46.37.22,1.07.12,1.6-.12.25-.15.55-.22.86-.28,1.26-.8,2.61-1.2,3.96-.06.12-.06.28-.09.43-.09.22-.15.37-.31.77-.06.18-.15.37-.25.74-.43,1.01-1.1,2.36-1.72,3.35-.06.15,0,.15-.12.18-.03.12-.31.55-.43.77-.03.12-.15.31-.22.34-.12.25-.25.31-.43.58-.28.4-.86.89-1.23,1.35-.22.15-.37.25-.58.46-.31.31-.65.64-1.07.92-.31.31-.8.46-1.26.77-.46.28-.86.55-1.32.74-1.26.52-2.7.83-4.39.74-.64-.06-1.32-.12-1.99-.34-.64-.25-1.78-.89-2.27-1.5-.03-.09,0-.09-.12-.25-.49-.46-.8-2.42-.46-3.47.12-.03.19-.15.25-.22.15-.34.55-.89,1.23-.58.34.77-.25.8-.46,1.32-.4.86.06,2.06.52,2.64,1.81,2.12,5.92,1.5,8.26.25.22-.12.46-.25.77-.43,1.14-.71,2.3-1.81,3.16-2.89.22-.12.28-.31.52-.55.06-.09.22-.34.31-.52.58-.98,1.35-2.21,1.78-3.44.71-1.57,1.26-3.22,1.75-4.63-.28-.15-.43.31-.61.49-1.23,1.26-2.7,2.64-4.39,3.65-.92.49-2,1.07-3.1,1.57-1.04.46-2.27.92-3.5,1.04-1.01.09-1.75-.06-2.52-.31-.22-.03-.68-.21-.89-.34-.09-.09-.15-.22-.22-.34-.12-.06-.18,0-.28-.06-.12-.15-.34-.37-.46-.61-.58-.68-.89-1.87-.77-3.41.25-2.15,1.78-4.42,2.92-6.02.12-.18.25-.37.4-.49.03-.15.22-.18.28-.25.03-.09,0-.18.06-.31.15-.15.34-.31.46-.46.31-.31.58-.58.89-.95.19-.18.34-.43.65-.64l.15-.06c.06-.03,0-.21,0-.21.09-.03.12-.03.25-.09.06-.09.31-.31.49-.46.09-.06.15-.18.15-.18.37-.18.71-.49,1.07-.86.37-.22.68-.46,1.04-.77.18-.09.4-.15.61-.22.71-.46,1.41-.98,2.27-1.35.15-.09.43-.09.68-.19.22-.03.37-.18.58-.25.77-.34,2.36-.8,3.44-.22,1.04.49,1.1,1.84.64,3.07,0,.06-.12.15-.12.19-.15.43-.34.71-.61,1.13,0,.03,0,.19-.03.34-.03.03-.21.03-.21.06-.12.09-.12.4-.22.46-.06.15-.22.25-.37.37-.09.15-.15.25-.28.37-1.01,1.17-2.24,2.21-3.47,3.19-.28.22-.46.43-.74.68-.09.03-.18.03-.31.09-.03,0-.03.12-.06.22-.15.03-.37.09-.46.15-.12.03-.12.15-.18.18-.31.15-.74.37-1.17.58-.03.03-.15.15-.18.15-.09,0-.18-.03-.25,0-.18.06-.22.15-.49.21-.46.12-1.07.37-1.41-.21-.09-.49.52-.37.77-.43Z"/>
      <path class="cls-1" d="m124.02,15.07c.46-.03,1.07-.25,1.5-.37.46-.09.89-.25.89.28-.09.67-.64.71-1.26.83-.58.18-1.41.34-2.15.37-.92.09-1.99-.19-2.85,0-.22.09-.15.12-.34.31-.15.12-.25.12-.43.22-.28.21-.46.49-.89.74-.25.09-.95.37-1.41.25-.22-.03-.46-.34-.64-.46-.25-.68-.03-1.44.15-2.06.12-.28.15-.58.31-.83.03-.06.15-.12.19-.19,0-.03.06-.18.09-.18.12-.09.25-.09.37-.21.03-.03.03-.22.09-.25.03-.06.18-.09.22-.09.12-.15.03-.31.15-.43.09-.03.25,0,.28-.09.03,0,.03-.12.15-.12.61-.43,1.93-.43,2.39.21.37.55.15,1.47-.09,2.09.55.34,2.64.09,3.28,0Zm-5.83,1.32c.28-.12.55-.25.67-.58-.61-.09-.89-.43-1.32-.74-.12.49-.37.92-.31,1.63.43.03.74-.15.95-.31Zm1.5-1.44c.12-.37.4-.74.25-1.41-.71-.25-1.38.22-1.5.8.22.37.61.61,1.26.61Z"/>
      <path class="cls-1" d="m132.77,3.13c-.09.25-.34.64-.46.77-.77,1.44-1.57,2.76-2.36,4.27-.06.15-.09.31-.18.46-.06.12-.22.18-.28.31-.61,1.07-1.32,2.76-1.81,3.99-.15.46-.34.92-.52,1.38-1.72,4.6,3.04,2.15,4.79.52.22-.22.46-.28.61,0,.19.31,0,.61-.31.89-4.63,3.84-7.67,2.15-5.89-2.06.31-.71.71-1.9.95-2.52.61-1.26,1.2-2.39,1.84-3.62.34-.52.55-.86.8-1.32.55-.95,1.2-2.09,1.81-3.04,0-.03,0-.18.06-.21.03-.09.18-.09.18-.12.12-.12.15-.4.31-.43.03-.15.15-.18.25-.22.12,0,.12.03.12.06.58.15.12.71.09.89Z"/>
      <path class="cls-1" d="m133.63,17.56c-1.63-.15-2.24-1.41-1.41-2.98.09-.25.21-.46.67-.22.31.64-.34.95-.12,1.57.58,1.6,3.31-.06,4.11-.46.8-.34,1.57-1.01,2.06-.71.43.83-.68,1.17-1.32,1.5-.18.06-.43.31-.61.37-.49.18-1.04.31-2.09.77-.46.06-.89.18-1.29.15Zm-.55-5.62c0-.77.92-1.41,1.5-1.01,0,.12,0,.28.12.28-.25.58-.49,1.14-1.38,1.04-.15-.06-.12-.31-.25-.31Z"/>
      <path class="cls-1" d="m139.7,14.4c.18.03.46-.34.74-.55.12-.03.28-.06.46-.12.31-.18.71-.46,1.32-.4.49.03.92.37,1.23.64.31.31.46.64.83,1.07.43.4.74.61,1.78.55.61-.06,2.06-.46,2.58-.67,1.17-.68,1.35.77.25.83-1.07.55-3.59,1.23-4.67.58-.22-.12-.55-.28-.77-.58-.31-.37-.83-1.32-1.44-1.35-.61-.12-1.41.64-1.84.98-.03.06-.22.06-.28.12-.34.25-.95,1.23-1.23,1.47-.28.19-.28.22-.86.06-.46-.64.43-1.84.8-2.42.31-.67.61-1.5.98-1.96.25-.25.34-.21.67-.06.22.74-.43,1.2-.55,1.81Z"/>
      <path class="cls-1" d="m152.41,17.07c-.49.22-1.54.89-2.49.86-1.84-.09-1.69-2.52-.49-3.84.28-.28.71-.49.98-.64.77-.52,1.69-.92,2.86-.77.46.09.86.31,1.35.58.09-.46.31-.95.55-1.47.12-.46.31-.95.55-1.29.12-.15.25-.61.37-.92.25-.37.43-.8.71-1.29.06-.15.06-.28.15-.37.09-.25.25-.31.4-.61.46-1.1,1.35-2.18,1.96-3.31.18-.34.74-1.07,1.01-1.41.12-.09.22-.03.34-.15.06-.15.37-.49.74-.55.55-.06,1.01.31,1.14.61.25.61-.28,1.84-.58,2.55-1.47,3.9-4.27,7.24-7.03,10.07-.4,1.17-.74,2.21-1.07,3.35-.25,1.04-.49,2.27-.61,3.59-.03.31-.03.74-.09,1.2-.09.61.25,1.04-.37,1.13-.8.12-.61-1.29-.61-1.81.15-2.24.58-4.24,1.17-6.05-.25.03-.49.28-.92.55Zm-.89-3.1c-.58.22-.71.22-1.1.68-.37.31-.52.55-.58.83,0,0-.18.09-.22.12-.09.31-.15.77-.09,1.17.89.37,2.03-.37,2.45-.65.4-.15.55-.31.89-.55.52-.4,1.23-.86,1.32-1.47-.37-.28-.83-.52-1.23-.49-.55-.06-1.13.18-1.44.37Zm5.49-3.84c-.06.12-.09.25-.15.31s-.12.25-.15.28c-.25.4-.37.95-.49,1.35-.03.09-.43.34-.19.49,2.18-2.61,4.18-5.31,5.28-8.72.46-1.23.03-.8-.43-.18-1.5,1.81-2.73,3.96-3.65,5.98-.03.25-.12.43-.22.49Z"/>
      <path class="cls-1" d="m161.98,16.3c1.26-.65,2.27-1.47,3.25-2.52.46-.46.95-1.1,1.75-1.1.58.4.03,1.1-.12,1.78-.18.74-.28,1.38.25,1.84.86.12,1.54-.12,2.06-.46.58-.25,1.04-.64,1.63-.92.06,0,.06-.18.12-.18.22-.12.64-.34.89,0,.25.37-.06.67-.43,1.01-.28.28-.74.43-1.04.55-.18.12-.31.34-.49.43-.67.28-2.12.95-3.19.52-.71-.31-1.01-1.23-.89-2.39-.25-.12-.43.25-.71.43-.95.89-2.15,1.84-3.71,2.36-.28.06-.61.22-.92.28-1.29.09-1.96-.52-1.53-1.93,0-.12.18-.18.21-.25.03-.31.15-.49.31-.83.77-1.07,2.39-2.21,3.62-2.33,1.23-.18,1.9.09,2.42.74,0,.12,0,.15-.12.22,0,.06,0,.18-.09.18.06.06,0,.06-.06.06-.55.06-.92-.25-1.38-.25-.86-.06-1.78.37-2.39.83-.8.58-1.53,1.5-1.57,2.52.83.25,1.57-.25,2.15-.58Z"/>
      <path class="cls-1" d="m172.45,14.4c.18.03.46-.34.74-.55.12-.03.28-.06.46-.12.31-.18.71-.46,1.32-.4.49.03.92.37,1.23.64.31.31.46.64.83,1.07.43.4.74.61,1.78.55.61-.06,2.06-.46,2.58-.67,1.17-.68,1.35.77.25.83-1.07.55-3.59,1.23-4.67.58-.22-.12-.55-.28-.77-.58-.31-.37-.83-1.32-1.44-1.35-.61-.12-1.41.64-1.84.98-.03.06-.22.06-.28.12-.34.25-.95,1.23-1.23,1.47-.28.19-.28.22-.86.06-.46-.64.43-1.84.8-2.42.31-.67.61-1.5.98-1.96.25-.25.34-.21.68-.06.21.74-.43,1.2-.55,1.81Z"/>
      <path class="cls-1" d="m189.02,15.07c.46-.03,1.07-.25,1.5-.37.46-.09.89-.25.89.28-.09.67-.64.71-1.26.83-.58.18-1.41.34-2.15.37-.92.09-1.99-.19-2.85,0-.22.09-.15.12-.34.31-.15.12-.25.12-.43.22-.28.21-.46.49-.89.74-.25.09-.95.37-1.41.25-.22-.03-.46-.34-.65-.46-.25-.68-.03-1.44.15-2.06.12-.28.15-.58.31-.83.03-.06.15-.12.19-.19,0-.03.06-.18.09-.18.12-.09.25-.09.37-.21.03-.03.03-.22.09-.25.03-.06.18-.09.22-.09.12-.15.03-.31.15-.43.09-.03.25,0,.28-.09.03,0,.03-.12.15-.12.61-.43,1.93-.43,2.39.21.37.55.15,1.47-.09,2.09.55.34,2.64.09,3.28,0Zm-5.83,1.32c.28-.12.55-.25.67-.58-.61-.09-.89-.43-1.32-.74-.12.49-.37.92-.31,1.63.43.03.74-.15.95-.31Zm1.5-1.44c.12-.37.4-.74.25-1.41-.71-.25-1.38.22-1.5.8.22.37.61.61,1.26.61Z"/>
    </g>
  </g>
</svg>