<?xml version="1.0" encoding="UTF-8"?>
<svg id="Layer_2" data-name="Layer 2" xmlns="http://www.w3.org/2000/svg" viewBox="0 0 67.93 63.05">
  <defs>
    <style>
      .cls-1 {
        fill: #1f0537;
        stroke-width: 0px;
      }
    </style>
  </defs>
  <g id="Layer_1-2" data-name="Layer 1">
    <g>
      <path class="cls-1" d="m43.14,63.05h-18.35c-.53,0-.95-.43-.95-.95v-6.48c0-.53.43-.95.95-.95h18.35c.53,0,.95.43.95.95v6.48c0,.53-.43.95-.95.95Zm-18.01-1.3h17.66v-5.8h-17.66v5.8Z"/>
      <path class="cls-1" d="m42.05,55.96h-16.16c-.29,0-.54-.19-.62-.47l-3.39-11.98c-.18-.63-.11-1.31.19-1.89l11.33-22.19c.11-.22.33-.35.58-.35s.47.14.58.35l11.33,22.19c.3.59.37,1.26.19,1.89l-3.39,11.98c-.08.28-.33.47-.62.47Zm-15.67-1.3h15.18l3.26-11.51c.09-.32.06-.65-.09-.95l-10.76-21.06-10.76,21.06c-.15.29-.18.63-.09.95l3.26,11.51Z"/>
      <path class="cls-1" d="m33.97,43.36c-.36,0-.65-.29-.65-.65v-23c0-.36.29-.65.65-.65s.65.29.65.65v23c0,.36-.29.65-.65.65Z"/>
      <path class="cls-1" d="m62.22,28.25c-.3,0-.56-.2-.63-.51-2.53-11.3-11.92-20.05-23.37-21.77-.35-.05-.6-.38-.54-.74.05-.35.38-.6.74-.54,11.97,1.8,21.8,10.95,24.44,22.76.08.35-.14.7-.49.77-.05.01-.1.02-.14.02Z"/>
      <path class="cls-1" d="m5.71,28.25s-.09,0-.14-.02c-.35-.08-.57-.42-.49-.77C7.73,15.64,17.55,6.49,29.53,4.69c.36-.05.68.19.74.54.05.35-.19.68-.54.74-11.45,1.72-20.84,10.47-23.38,21.77-.07.3-.34.51-.63.51Z"/>
      <path class="cls-1" d="m33.97,10.01c-2.76,0-5-2.25-5-5s2.25-5,5-5,5,2.25,5,5-2.25,5-5,5Zm0-8.71c-2.05,0-3.71,1.66-3.71,3.71s1.66,3.71,3.71,3.71,3.71-1.66,3.71-3.71-1.66-3.71-3.71-3.71Z"/>
      <path class="cls-1" d="m9.36,10.01c-2.76,0-5-2.25-5-5S6.6,0,9.36,0s5,2.25,5,5-2.25,5-5,5Zm0-8.71c-2.05,0-3.71,1.66-3.71,3.71s1.66,3.71,3.71,3.71,3.71-1.66,3.71-3.71-1.66-3.71-3.71-3.71Z"/>
      <path class="cls-1" d="m5,36.9c-2.76,0-5-2.25-5-5s2.25-5,5-5,5,2.25,5,5-2.25,5-5,5Zm0-8.71c-2.05,0-3.71,1.66-3.71,3.71s1.66,3.71,3.71,3.71,3.71-1.66,3.71-3.71-1.66-3.71-3.71-3.71Z"/>
      <path class="cls-1" d="m58.57,10.01c-2.76,0-5-2.25-5-5s2.25-5,5-5,5,2.25,5,5-2.25,5-5,5Zm0-8.71c-2.05,0-3.71,1.66-3.71,3.71s1.66,3.71,3.71,3.71,3.71-1.66,3.71-3.71-1.66-3.71-3.71-3.71Z"/>
      <path class="cls-1" d="m62.93,36.9c-2.76,0-5-2.25-5-5s2.25-5,5-5,5,2.25,5,5-2.25,5-5,5Zm0-8.71c-2.05,0-3.71,1.66-3.71,3.71s1.66,3.71,3.71,3.71,3.71-1.66,3.71-3.71-1.66-3.71-3.71-3.71Z"/>
      <path class="cls-1" d="m29.61,5.65h-15.89c-.36,0-.65-.29-.65-.65s.29-.65.65-.65h15.89c.36,0,.65.29.65.65s-.29.65-.65.65Z"/>
      <path class="cls-1" d="m54.21,5.65h-15.9c-.36,0-.65-.29-.65-.65s.29-.65.65-.65h15.9c.36,0,.65.29.65.65s-.29.65-.65.65Z"/>
    </g>
  </g>
</svg>